# xmcd
#
# Track frame offsets:
#	150
#	14870
#	26209
#	40193
#	59378
#	77573
#	96757
#	111386
#	126084
#	137974
#	150417
#	165276
#	181239
#	194188
#	213165
#	229718
#	240145
#
# Disc length: 3374 seconds
#
# Revision: 0
# Processed by: cddbd v1.5.2PL0 Copyright (c) Steve Scherf et al.
# Submitted via: FairStars CD Ripper 1.90
#
DISCID=e10d2c11
DTITLE=Various Artist - 100 Hits Country Hits Disc 2
DYEAR=2015
DGENRE=Country
TTITLE0=Just Another Love (Live) (Tanya Tucker)
TTITLE1=Silver Wings (Merle Haggard)
TTITLE2=Don't The Girls Get All Prettier At Closing Time (Live) (Mickey Gilley)
TTITLE3=I Can't Get Close Enough (Exile)
TTITLE4=Tell Me A Lie (Janie Fricke)
TTITLE5=I Wanna Be With You Tonight (Alabama)
TTITLE6=Darlene ( T. Graham Brown)
TTITLE7=Why Don't I Think Of That (Doug Stone)
TTITLE8=Are You Ever Going To Love Me (Holly Dunn)
TTITLE9=Good Old Boys (Moe Bandy)
TTITLE10=Rose Garden (Lynn Anderson)
TTITLE11=Here's Some Love (Tanya Tucker)
TTITLE12=Gimme One More Chance (Exile)
TTITLE13=You Make Me Want To Make You Mine (Juice Newton)
TTITLE14=Strong Heart (T.G. Sheppard)
TTITLE15=Three Cigarettes In The Ashtray (Patsy Cline)
TTITLE16=Carroll County Accident (Porter Wagoner)
EXTD=
EXTT0=
EXTT1=
EXTT2=
EXTT3=
EXTT4=
EXTT5=
EXTT6=
EXTT7=
EXTT8=
EXTT9=
EXTT10=
EXTT11=
EXTT12=
EXTT13=
EXTT14=
EXTT15=
EXTT16=
PLAYORDER=
